# xmcd CD database file
#
# Track frame offsets:
#	150
#	23500
#	69890
#	87735
#	112090
#	125507
#	139847
#	165372
#	177927
#	205935
#	219640
#	244227
#	257960
#	284240
#
# Disc length: 4113 seconds
#
# Revision: 0
# Processed by: cddbd v1.5.1PL2 Copyright (c) Steve Scherf et al.
# Submitted via: CDex 1.51
#
DISCID=d8100f0e
DTITLE=Various Artist - Blue Note - April Releases 1997
DYEAR=1997
DGENRE=Jazz
TTITLE0=Kurt Elling - April In Paris
TTITLE1=Kurt Elling - Tanya Jean
TTITLE2=Ronnie Laws - Listen Here
TTITLE3=Ronnie Laws - I Don't Want No One But You
TTITLE4=Frank Sinatra - I Get A Kick Out of You
TTITLE5=Frank Sinatra - I've Got You Under My Skin
TTITLE6=Sherman Irby - Betty the Baptist
TTITLE7=Golden Gate Quintet - When the Saints Go Marching In
TTITLE8=Carlinhos Brown - Covered Saints
TTITLE9=Caecilie Norby - The Look of Love
TTITLE10=Herby Hancock - Cantaloup Island
TTITLE11=Chet Baker - But Not For Me
TTITLE12=US3 - Come On Everybody
TTITLE13=US3 - I'm Thinking About Your Body
EXTD=YEAR: 1997
EXTT0=
EXTT1=
EXTT2=
EXTT3=
EXTT4=
EXTT5=
EXTT6=
EXTT7=
EXTT8=
EXTT9=
EXTT10=
EXTT11=
EXTT12=
EXTT13=
PLAYORDER=
